<svg viewBox="0 0 200 200" xmlns="http://www.w3.org/2000/svg"><rect fill="none" height="78.14" rx="4.18" stroke="#26272b" stroke-width="2.09" width="76.89" x="11.43" y="10.99"/><g fill="#26272b"><path d="m20.85 45.22h.82a4.12 4.12 0 0 0 2-.37 1.24 1.24 0 0 0 .62-1.17 1.26 1.26 0 0 0 -.62-1.18 4.26 4.26 0 0 0 -2-.36h-.82zm0-5.89h.69q1.77 0 1.77-1.41t-1.77-1.41h-.69zm-3.78-5.7h5.62a4.36 4.36 0 0 1 3 1 3.6 3.6 0 0 1 1 2.77 3.8 3.8 0 0 1 -.4 1.82 3.25 3.25 0 0 1 -1.2 1.22 4.4 4.4 0 0 1 1.37.48 3 3 0 0 1 .93.78 2.74 2.74 0 0 1 .51 1 4.82 4.82 0 0 1 .15 1.23 4.49 4.49 0 0 1 -.35 1.81 3.77 3.77 0 0 1 -1 1.33 4.33 4.33 0 0 1 -1.57.81 7.84 7.84 0 0 1 -2.08.26h-5.98zm16.48 4.64v9.87h-3.48v-9.87zm-3.71-3.8a1.94 1.94 0 0 1 .15-.76 2 2 0 0 1 .43-.62 2 2 0 0 1 .62-.43 2 2 0 0 1 1.52 0 2.13 2.13 0 0 1 .63.43 2 2 0 0 1 .42.62 2 2 0 0 1 .16.76 2 2 0 0 1 -1.21 1.81 1.94 1.94 0 0 1 -2.14-.42 2 2 0 0 1 -.43-.63 1.91 1.91 0 0 1 -.15-.76zm10 6.7v7h-3.49v-7h-1.16v-2.9h1.16v-3h3.48v3h2v2.9zm10.74.29a3.2 3.2 0 0 0 -1.82-.61 2.38 2.38 0 0 0 -1.7.66 2.17 2.17 0 0 0 -.51.75 2.54 2.54 0 0 0 -.18 1 2.49 2.49 0 0 0 .18 1 2.22 2.22 0 0 0 1.26 1.24 2.5 2.5 0 0 0 1 .17 2.85 2.85 0 0 0 1.82-.67v3a6 6 0 0 1 -2.44.56 5.86 5.86 0 0 1 -2.05-.36 5.33 5.33 0 0 1 -1.77-1.2 5.16 5.16 0 0 1 -1.19-1.64 5 5 0 0 1 -.44-2.13 5.31 5.31 0 0 1 .42-2.14 5.1 5.1 0 0 1 1.16-1.68 5.27 5.27 0 0 1 1.74-1.1 6 6 0 0 1 2.17-.31 5.13 5.13 0 0 1 2.34.54zm5.28 1.7a2.24 2.24 0 0 0 .18.91 2.48 2.48 0 0 0 .49.72 2 2 0 0 0 .71.49 2.32 2.32 0 0 0 .87.17 2.38 2.38 0 0 0 .88-.17 2.1 2.1 0 0 0 .71-.49 2.27 2.27 0 0 0 .48-.72 2.16 2.16 0 0 0 0-1.77 2.27 2.27 0 0 0 -.48-.72 1.94 1.94 0 0 0 -.7-.48 2.2 2.2 0 0 0 -.88-.18 2.15 2.15 0 0 0 -.87.18 1.86 1.86 0 0 0 -.71.48 2.57 2.57 0 0 0 -.49.71 2.12 2.12 0 0 0 -.2.87zm-3.68 0a4.73 4.73 0 0 1 .45-2 4.89 4.89 0 0 1 1.23-1.66 5.72 5.72 0 0 1 1.88-1.1 7.11 7.11 0 0 1 4.73 0 5.68 5.68 0 0 1 1.89 1.09 4.9 4.9 0 0 1 1.24 1.68 5.15 5.15 0 0 1 -1.25 6 5.63 5.63 0 0 1 -1.9 1.09 7.39 7.39 0 0 1 -2.39.38 7.11 7.11 0 0 1 -2.35-.38 5.56 5.56 0 0 1 -1.87-1.26 5.1 5.1 0 0 1 -1.22-1.71 5.24 5.24 0 0 1 -.45-2.17zm17.35-4.85v9.87h-3.53v-9.91zm-3.71-3.8a1.94 1.94 0 0 1 .15-.76 2 2 0 0 1 .42-.62 2.13 2.13 0 0 1 .63-.43 2 2 0 0 1 1.52 0 2.13 2.13 0 0 1 .63.43 2 2 0 0 1 .42.62 1.94 1.94 0 0 1 .15.76 1.91 1.91 0 0 1 -.15.76 1.93 1.93 0 0 1 -1 1.05 1.89 1.89 0 0 1 -1.52 0 1.93 1.93 0 0 1 -1.07-1.09 1.91 1.91 0 0 1 -.19-.76zm6.1 3.8h3.48v1.25a3.86 3.86 0 0 1 1.45-1.17 4.51 4.51 0 0 1 1.71-.29 4.32 4.32 0 0 1 1.78.33 3.42 3.42 0 0 1 1.26 1 2.58 2.58 0 0 1 .58 1.11 6 6 0 0 1 .16 1.41v6.27h-3.5v-5a5.55 5.55 0 0 0 -.1-1.19 1.55 1.55 0 0 0 -.38-.72 1.44 1.44 0 0 0 -.52-.33 2.06 2.06 0 0 0 -.62-.09 1.68 1.68 0 0 0 -1.35.53 2.16 2.16 0 0 0 -.48 1.51v5.27h-3.48zm-51.07 24.29h.86a4.55 4.55 0 0 0 1.75-.31 3.58 3.58 0 0 0 1.3-.85 3.41 3.41 0 0 0 .81-1.28 4.45 4.45 0 0 0 .28-1.62 4.32 4.32 0 0 0 -.29-1.62 3.6 3.6 0 0 0 -.82-1.29 3.72 3.72 0 0 0 -1.3-.85 4.72 4.72 0 0 0 -1.73-.31h-.86zm-3.78-11.32h5.59a6.73 6.73 0 0 1 2.78.59 7.74 7.74 0 0 1 2.27 1.59 7.28 7.28 0 0 1 1.53 2.31 7.07 7.07 0 0 1 .56 2.77 7 7 0 0 1 -.55 2.74 7.41 7.41 0 0 1 -1.52 2.32 7.59 7.59 0 0 1 -2.27 1.6 6.6 6.6 0 0 1 -2.8.59h-5.59zm22 8.14a2.08 2.08 0 0 0 -.71-1.17 2 2 0 0 0 -1.31-.45 2 2 0 0 0 -1.32.43 1.92 1.92 0 0 0 -.65 1.19zm-4.08 2c0 1.51.7 2.26 2.12 2.26a1.9 1.9 0 0 0 1.71-.93h3.37q-1 3.39-5.1 3.39a6.77 6.77 0 0 1 -2.3-.37 5.39 5.39 0 0 1 -1.79-1.05 4.92 4.92 0 0 1 -1.14-1.66 5.51 5.51 0 0 1 -.41-2.16 6 6 0 0 1 .39-2.22 4.63 4.63 0 0 1 1.16-1.68 4.73 4.73 0 0 1 1.72-1.07 6.49 6.49 0 0 1 2.28-.38 6.32 6.32 0 0 1 2.25.38 4.59 4.59 0 0 1 1.68 1.07 4.89 4.89 0 0 1 1.07 1.76 7 7 0 0 1 .36 2.32v.36zm11.59-5.52 2.42 5.1 2.39-5.06h3.88l-5.14 9.87h-2.37l-5.08-9.87zm-25.76 19 4.6-6h4.66l-5.73 6.9 6.3 7.65h-4.89l-4.91-6.3v6.3h-3.78v-14.52h3.78zm14.63-1.35v9.88h-3.45v-9.86zm-3.72-3.8a1.79 1.79 0 0 1 .16-.76 2 2 0 0 1 .42-.62 2.13 2.13 0 0 1 .69-.37 1.91 1.91 0 0 1 .76-.15 1.94 1.94 0 0 1 .76.15 2.12 2.12 0 0 1 1 1.05 1.94 1.94 0 0 1 .15.76 1.91 1.91 0 0 1 -.15.76 2.13 2.13 0 0 1 -.43.63 2 2 0 0 1 -.62.42 1.79 1.79 0 0 1 -.76.16 1.76 1.76 0 0 1 -.76-.16 1.93 1.93 0 0 1 -1-1 1.76 1.76 0 0 1 -.19-.85zm10 6.7v7h-3.46v-7h-1.15v-2.9h1.15v-3h3.49v3h2v2.9z" fill-rule="evenodd"/><path d="m189.05 148.47-3.32-2.06-.09-1 2.85-2.66a1.13 1.13 0 0 0 .34-1.06 1.15 1.15 0 0 0 -.72-.85l-3.65-1.36c-.09-.31-.18-.63-.28-.94l2.27-3.16a1.14 1.14 0 0 0 -.74-1.79l-3.84-.63c-.15-.29-.31-.57-.47-.86l1.6-3.5a1.15 1.15 0 0 0 -1.08-1.62l-3.9.14-.61-.75.89-3.8a1.13 1.13 0 0 0 -1.3-1.37l-3.8.89-.75-.61.14-3.9a1.15 1.15 0 0 0 -1.62-1.08l-3.54 1.61-.86-.46-.63-3.84a1.14 1.14 0 0 0 -1.79-.74l-3.16 2.27-.94-.29-1.36-3.64a1.15 1.15 0 0 0 -.85-.72 1.13 1.13 0 0 0 -1.06.34l-2.66 2.85c-.32 0-.64-.07-1-.09l-2.06-3.32a1.12 1.12 0 0 0 -1-.54 1.14 1.14 0 0 0 -1 .54l-2.05 3.32-1 .09-2.58-2.88a1.12 1.12 0 0 0 -1.05-.34 1.15 1.15 0 0 0 -.85.72l-1.36 3.64-.94.29-3.16-2.27a1.11 1.11 0 0 0 -1.11-.13 1.16 1.16 0 0 0 -.69.87l-.62 3.84-.87.46-3.54-1.61a1.13 1.13 0 0 0 -1.11.09 1.12 1.12 0 0 0 -.5 1l.13 3.9-.75.61-3.8-.89a1.13 1.13 0 0 0 -1.37 1.37l.89 3.8-.61.75-3.9-.14a1.15 1.15 0 0 0 -1.08 1.62l1.62 3.54c-.16.29-.32.57-.47.86l-3.84.63a1.12 1.12 0 0 0 -.87.69 1.14 1.14 0 0 0 .13 1.1l2.27 3.16c-.1.31-.19.63-.28.94l-3.65 1.36a1.15 1.15 0 0 0 -.38 1.91l2.85 2.66-.09 1-3.32 2.06a1.14 1.14 0 0 0 0 1.94l3.32 2.05.09 1-2.85 2.66a1.14 1.14 0 0 0 .38 1.9l3.65 1.36c.09.32.18.63.28 1l-2.27 3.15a1.14 1.14 0 0 0 .74 1.8l3.84.62c.15.29.31.58.47.87l-1.62 3.54a1.16 1.16 0 0 0 .09 1.11 1.13 1.13 0 0 0 1 .5l3.9-.13.61.75-.89 3.8a1.14 1.14 0 0 0 1.37 1.37l3.8-.9.75.62-.13 3.9a1.13 1.13 0 0 0 .5 1 1.16 1.16 0 0 0 1.11.09l3.54-1.62.87.46.62 3.84a1.14 1.14 0 0 0 1.8.75l3.15-2.28.94.29 1.37 3.64a1.14 1.14 0 0 0 1.9.38l2.66-2.85 1 .1 2.05 3.31a1.15 1.15 0 0 0 1 .55 1.14 1.14 0 0 0 1-.55l2.06-3.31 1-.1 2.66 2.85a1.13 1.13 0 0 0 1.06.34 1.1 1.1 0 0 0 .84-.72l1.37-3.64.94-.29 3.16 2.28a1.14 1.14 0 0 0 1.1.13 1.12 1.12 0 0 0 .69-.88l.63-3.84.86-.46 3.54 1.62a1.15 1.15 0 0 0 1.62-1.08l-.14-3.9.75-.62 3.8.9a1.14 1.14 0 0 0 1.37-1.37l-.89-3.8.61-.75 3.9.13a1.13 1.13 0 0 0 1-.5 1.16 1.16 0 0 0 .09-1.11l-1.62-3.54c.16-.29.32-.58.47-.87l3.84-.62a1.14 1.14 0 0 0 .74-1.8l-2.27-3.15c.1-.32.19-.63.28-1l3.65-1.36a1.15 1.15 0 0 0 .72-.84 1.13 1.13 0 0 0 -.34-1.06l-2.86-2.66c0-.32.07-.65.1-1l3.32-2.05a1.16 1.16 0 0 0 .54-1 1.15 1.15 0 0 0 -.54-1zm-22.2 27.53a2.35 2.35 0 1 1 2.78-1.81 2.37 2.37 0 0 1 -2.78 1.81zm-1.13-7.63a2.14 2.14 0 0 0 -2.54 1.65l-1.18 5.48a29 29 0 0 1 -24.09-.11l-1.18-5.5a2.13 2.13 0 0 0 -2.54-1.64l-4.85 1a28.44 28.44 0 0 1 -2.51-3h23.61c.27 0 .45-.05.45-.29v-8.35c0-.24-.18-.29-.45-.29h-6.9v-5.29h7.46c.69 0 3.65.19 4.6 4 .29 1.16.94 4.95 1.39 6.16.44 1.37 2.25 4.08 4.18 4.08h11.76a2.22 2.22 0 0 0 .43 0 28.66 28.66 0 0 1 -2.68 3.14l-5-1.07zm-32.65 7.51a2.35 2.35 0 1 1 1.8-2.79 2.35 2.35 0 0 1 -1.8 2.78zm-9-36.31a2.35 2.35 0 1 1 -3.1-1.2 2.35 2.35 0 0 1 3.14 1.19zm-2.75 6.52 5-2.25a2.14 2.14 0 0 0 1.18-2.84l-1-2.36h4.09v18.46h-8.26a28.91 28.91 0 0 1 -.93-11zm22.18-1.79v-5.44h9.75c.5 0 3.55.58 3.55 2.86 0 1.9-2.34 2.58-4.26 2.58zm35.5 4.88c0 .73 0 1.44-.08 2.15h-3c-.29 0-.41.19-.41.48v1.37c0 3.2-1.81 3.9-3.39 4.07s-3.18-.63-3.39-1.55c-.89-5-2.37-6.07-4.71-7.92 2.91-1.84 5.93-4.56 5.93-8.2 0-3.94-2.7-6.41-4.53-7.63a12.88 12.88 0 0 0 -6.21-2h-30.65a28.88 28.88 0 0 1 16.16-9.12l3.62 3.79a2.12 2.12 0 0 0 3 .07l4-3.87a28.92 28.92 0 0 1 19.78 14.09l-2.77 6.25a2.15 2.15 0 0 0 1.15 2.84l5.33 2.36c.09.95.14 1.91.14 2.87zm-30.63-31.61a2.34 2.34 0 0 1 3.31.07 2.35 2.35 0 1 1 -3.31-.07zm27.46 22.1a2.35 2.35 0 1 1 1.19 3.1 2.35 2.35 0 0 1 -1.22-3.1z"/><path d="m117.56 72.08a5.86 5.86 0 0 0 0 11.69 4.34 4.34 0 0 0 3.57-1.66v.73a.77.77 0 0 0 .73.72h1.78v-11.23h-2.51v1.43a4.34 4.34 0 0 0 -3.57-1.68zm.45 2.29a3.58 3.58 0 0 1 0 7.14 3.39 3.39 0 0 1 -3.3-3.59 3.35 3.35 0 0 1 3.29-3.55z"/><path d="m127.13 83.56a.7.7 0 0 1 -.72-.72v-10.51h2.51v1.39a3.93 3.93 0 0 1 3.38-1.65 4.19 4.19 0 0 1 4.27 4.3v7.19h-1.74a.77.77 0 0 1 -.77-.77v-5.87a2.38 2.38 0 0 0 -2.33-2.55 3 3 0 0 0 -2.81 3.23v6z"/><path d="m143.89 72.08a5.86 5.86 0 0 0 0 11.69 4.34 4.34 0 0 0 3.57-1.66v.73a.76.76 0 0 0 .72.72h1.82v-16.84h-2.51v7a4.34 4.34 0 0 0 -3.57-1.68zm.44 2.29a3.58 3.58 0 0 1 0 7.14 3.39 3.39 0 0 1 -3.3-3.59 3.35 3.35 0 0 1 3.3-3.55z"/><path d="m153.46 83.56a.71.71 0 0 1 -.73-.72v-10.51h2.51v1.87a3.09 3.09 0 0 1 3-2 5.11 5.11 0 0 1 .9.09v2.59a3.68 3.68 0 0 0 -1.2-.21c-1.76 0-2.72 1.66-2.72 3.23v5.66z"/><path d="m174.38 83.56a.7.7 0 0 1 -.72-.72v-10.51h2.51v11.23z"/><path d="m183.53 72.08a5.86 5.86 0 0 0 0 11.69 4.34 4.34 0 0 0 3.57-1.66v.73a.76.76 0 0 0 .72.72h1.79v-16.84h-2.51v7a4.34 4.34 0 0 0 -3.57-1.68zm.44 2.29a3.58 3.58 0 0 1 0 7.14 3.39 3.39 0 0 1 -3.3-3.59 3.35 3.35 0 0 1 3.33-3.55z"/><circle cx="174.89" cy="68.25" r="1.66"/><path d="m165.77 72.07a5.77 5.77 0 0 0 -5.85 5.85 5.72 5.72 0 0 0 5.85 5.85 5.85 5.85 0 1 0 0-11.7zm0 2.34a3.39 3.39 0 0 1 3.37 3.52 3.36 3.36 0 1 1 -6.72 0 3.38 3.38 0 0 1 3.35-3.56z"/><path d="m169.79 29.25 6.42-11.13a1.3 1.3 0 0 0 -.48-1.77 1.28 1.28 0 0 0 -1.77.47l-6.5 11.26a40.58 40.58 0 0 0 -33.11 0l-6.51-11.26a1.3 1.3 0 0 0 -2.25 1.3l6.41 11.13a38.29 38.29 0 0 0 -19.8 30.32h77.4a38.3 38.3 0 0 0 -19.81-30.32zm-36.66 19.45a3.25 3.25 0 1 1 3.25-3.24 3.25 3.25 0 0 1 -3.25 3.24zm35.54 0a3.25 3.25 0 1 1 3.24-3.24 3.25 3.25 0 0 1 -3.24 3.24z"/><path d="m80.62 126.39-25.17-14.94a9.45 9.45 0 0 0 -9.66 0l-25.17 14.94a10 10 0 0 0 -4.9 8.65v29.88a10 10 0 0 0 4.85 8.65l25.17 14.94a9.52 9.52 0 0 0 9.67 0l25.17-14.94a10 10 0 0 0 4.85-8.65v-29.92a10 10 0 0 0 -4.81-8.61zm-19.49 46.66v2.14a.77.77 0 0 1 -.37.66l-1.27.73c-.21.11-.37 0-.37-.28v-2.11a4.15 4.15 0 0 1 -2.9.28.37.37 0 0 1 -.14-.47l.45-1.95a.81.81 0 0 1 .26-.42l.12-.09a.34.34 0 0 1 .2 0 3.73 3.73 0 0 0 4.61-3.34c0-1.09-.6-1.55-2-1.56-1.83 0-3.52-.35-3.56-3a7.85 7.85 0 0 1 3-6v-2.17a.77.77 0 0 1 .37-.66l1.23-.79c.2-.1.37 0 .37.29v2.17a4.08 4.08 0 0 1 2.41-.29.4.4 0 0 1 .16.51l-.43 1.92a.94.94 0 0 1 -.27.38.38.38 0 0 1 -.13.09.28.28 0 0 1 -.18 0 3.2 3.2 0 0 0 -2.32.38 2.93 2.93 0 0 0 -1.8 2.53c0 1 .52 1.28 2.26 1.31 2.33 0 3.33 1.06 3.36 3.4a8.35 8.35 0 0 1 -3.06 6.34zm13.18-3.61a.5.5 0 0 1 -.19.48l-6.36 3.87a.19.19 0 0 1 -.26 0 .16.16 0 0 1 0-.16v-1.63a.47.47 0 0 1 .29-.41l6.21-3.79a.19.19 0 0 1 .3.19zm4.4-36.75-23.82 14.71c-3 1.76-5.16 3.69-5.16 7.26v29.34c0 2.14.88 3.51 2.2 3.93a7.4 7.4 0 0 1 -1.32.14 7.91 7.91 0 0 1 -4-1.1l-25.14-14.97a8.28 8.28 0 0 1 -4-7.11v-29.89a8.26 8.26 0 0 1 4-7.12l25.17-14.88a7.74 7.74 0 0 1 7.91 0l25.17 14.94a8.19 8.19 0 0 1 3.86 5.76c-.81-1.78-2.69-2.27-4.88-1z"/></g></svg>